<?xml version="1.0" encoding="UTF-8"?><svg xmlns="http://www.w3.org/2000/svg" viewBox="0 0 2000 2000"><defs><style>.cls-1,.cls-2,.cls-3,.cls-4{fill:#d97729;}.cls-5{fill:#1c1a19;}.cls-2{font-size:174.77px;}.cls-2,.cls-3,.cls-4{font-family:MalagaOTCE-Med, 'Malaga OTCE';}.cls-3{font-size:155.91px;}.cls-4{font-size:149px;}.cls-6{fill:none;stroke:#d97729;stroke-linecap:round;stroke-linejoin:round;stroke-width:9px;}</style></defs><g id="Layer_4"><g><g id="nose_hole"><path class="cls-1" d="M1057.4,961.06c-4.62,1.5-9.52-1.38-10.44-6.15-1.57-8.17-2.73-18.57,.77-21.13,5.98-4.37,9.95-1.8,19.21,10.88,9.26,12.68,19.19,26.34,6.91,18.37-5.97-3.87-11.92-3.43-16.45-1.96Z"/><path class="cls-1" d="M959.24,961.06c4.62,1.5,9.52-1.38,10.44-6.15,1.57-8.17,2.73-18.57-.77-21.13-5.98-4.37-9.95-1.8-19.21,10.88-9.26,12.68-19.19,26.34-6.91,18.37,5.97-3.87,11.92-3.43,16.45-1.96Z"/></g><circle class="cls-5" cx="1008.07" cy="1000" r="748.32"/><g><path class="cls-5" d="M1677.46,1000c-.03,43.93-4.28,87.75-12.78,130.7-8.5,42.96-21.25,85.04-38.02,125.49-33.49,80.91-83.23,155.14-145.26,217.14-62.01,62.03-136.24,111.76-217.15,145.26-40.44,16.77-82.53,29.52-125.49,38.02-42.96,8.51-86.78,12.76-130.7,12.78-43.93-.03-87.75-4.28-130.7-12.78-42.96-8.5-85.04-21.25-125.49-38.02-80.91-33.49-155.14-83.23-217.14-145.26-62.03-62.01-111.76-136.24-145.26-217.14-16.77-40.44-29.52-82.53-38.02-125.49-8.51-42.96-12.76-86.78-12.78-130.7,.03-43.93,4.28-87.75,12.78-130.7,8.5-42.96,21.25-85.04,38.02-125.49,33.49-80.91,83.23-155.14,145.26-217.14,62.01-62.03,136.24-111.76,217.14-145.26,40.44-16.77,82.53-29.52,125.49-38.02,42.96-8.51,86.78-12.76,130.7-12.78,43.93,.03,87.75,4.28,130.7,12.78,42.96,8.5,85.04,21.25,125.49,38.02,80.91,33.49,155.14,83.23,217.15,145.26,62.03,62.01,111.76,136.24,145.26,217.14,16.77,40.44,29.52,82.53,38.02,125.49,8.51,42.96,12.76,86.78,12.78,130.7h157.85c-.03-54.04-5.26-108.19-15.78-161.33-10.51-53.15-26.3-105.27-47.06-155.32-20.75-50.05-46.45-98.02-76.57-143.01-30.11-44.99-64.63-87.01-102.89-125.29-38.27-38.26-80.29-72.78-125.29-102.89-44.99-30.12-92.96-55.82-143.01-76.57-50.05-20.76-102.17-36.55-155.32-47.06-53.14-10.52-107.29-15.76-161.33-15.78-54.04,.03-108.19,5.26-161.33,15.78-53.15,10.51-105.27,26.3-155.32,47.06-50.05,20.75-98.02,46.45-143.01,76.57-44.99,30.11-87.01,64.63-125.29,102.89-38.26,38.27-72.78,80.29-102.89,125.29-30.12,44.99-55.82,92.96-76.57,143.01-20.76,50.05-36.55,102.17-47.06,155.32-10.52,53.14-15.76,107.29-15.78,161.33,.03,54.04,5.26,108.19,15.78,161.33,10.51,53.15,26.3,105.27,47.06,155.32,20.75,50.05,46.45,98.02,76.57,143.01,30.11,44.99,64.63,87.01,102.89,125.29,38.27,38.26,80.29,72.78,125.29,102.89,44.99,30.12,92.96,55.82,143.01,76.57,50.05,20.76,102.17,36.55,155.32,47.06,53.14,10.52,107.29,15.76,161.33,15.78,54.04-.03,108.19-5.26,161.33-15.78,53.15-10.51,105.27-26.3,155.32-47.06,50.05-20.75,98.02-46.45,143.01-76.57,44.99-30.11,87.01-64.63,125.29-102.89,38.26-38.27,72.78-80.29,102.89-125.29,30.12-44.99,55.82-92.96,76.57-143.01,20.76-50.05,36.55-102.17,47.06-155.32,10.52-53.14,15.76-107.29,15.78-161.33h-157.85Z"/><g><path class="cls-1" d="M1752.38,638.65c-27.01-55.35-60.03-107.77-98.61-155.73-19.26-24-39.8-46.97-61.59-68.7-21.82-21.7-44.81-42.2-68.86-61.4l-3.46-2.78c-24.16-19.06-49.43-36.72-75.56-52.99-26.15-16.25-53.16-31.13-81-44.31-55.64-26.4-114.22-46.8-174.38-60.1-60.14-13.37-121.73-20.09-183.18-19.87-61.45,.2-123.02,7.16-183.09,20.87-1.45,.3-2.89,.68-4.33,1.02-59.2,13.97-116.92,34.39-171.6,61.02-27.33,13.32-53.93,28.14-79.64,44.35l-4.83,3.02-4.76,3.13-9.52,6.27c-3.19,2.06-6.27,4.29-9.41,6.43l-9.36,6.5-9.21,6.71-4.6,3.36c-1.54,1.11-3.06,2.25-4.56,3.41l-9.04,6.93-4.52,3.47-4.44,3.57-3.64,2.93c-94.7,76.18-172.22,173.48-225.42,282.89-.66,1.33-1.33,2.65-1.94,4-13.29,27.79-25.04,56.31-35.18,85.41-10.13,29.09-18.69,58.75-25.42,88.81-13.55,60.1-20.35,121.68-20.39,183.13,.05,62.19,7.01,124.51,20.87,185.31,6.94,30.4,15.7,60.37,26.05,89.78,1.31,3.67,2.56,7.37,3.93,11.01l4.15,10.93,2.08,5.46c.7,1.82,1.46,3.61,2.19,5.42l4.42,10.82c1.44,3.62,3.06,7.17,4.6,10.75l4.69,10.71,4.93,10.6,2.48,5.29,1.24,2.65,1.3,2.62c27.01,55.35,60.03,107.77,98.61,155.73,19.26,24,39.8,46.97,61.59,68.7,21.82,21.7,44.81,42.2,68.86,61.4l3.46,2.78c24.16,19.06,49.43,36.72,75.56,52.99,26.15,16.25,53.16,31.13,81,44.31,55.64,26.4,114.22,46.8,174.38,60.1,60.14,13.37,121.73,20.09,183.18,19.87,61.45-.2,123.02-7.16,183.09-20.87,1.45-.3,2.89-.68,4.33-1.02,59.2-13.97,116.92-34.39,171.6-61.02,27.33-13.32,53.93-28.14,79.64-44.35l4.83-3.02,4.76-3.13,9.52-6.27c3.19-2.06,6.27-4.29,9.41-6.43l9.36-6.5,9.21-6.71,4.6-3.36c1.54-1.11,3.06-2.25,4.56-3.41l9.04-6.93,4.52-3.47,4.44-3.57,3.64-2.93c94.7-76.18,172.22-173.48,225.42-282.89,.66-1.33,1.33-2.65,1.94-4,13.29-27.79,25.04-56.31,35.17-85.41,10.13-29.09,18.69-58.75,25.42-88.81,13.55-60.1,20.35-121.68,20.39-183.13h-10.04l-.15,12.28-110.88-1.64h0s-4.07-.06-4.07-.06c0,8.14-.47,16.26-.73,24.38-.2,4.06-.5,8.11-.74,12.17l-.38,6.08c-.14,2.03-.35,4.05-.52,6.07l-1.08,12.14-1.38,12.11-.69,6.05-.85,6.03-1.7,12.07,4.03,.62-.02,.1,47.15,7.26,2.81-20.03-31.46-3.98c2.55-20.39,4.22-40.88,5.08-61.42l94.81,3.91c-2.22,54.01-9.78,107.88-22.64,160.48l-107.72-26.33v.03s-3.96-.97-3.96-.97c-1.84,7.92-4.06,15.74-6.16,23.59-1.09,3.91-2.3,7.79-3.45,11.69l-1.74,5.84-1.88,5.8-3.78,11.59-4.05,11.5c-1.31,3.85-2.79,7.63-4.23,11.43l-2.17,5.7-1.08,2.85-1.15,2.82,18.64,7.44v-.02s29.46,11.76,29.46,11.76c1.31-3.11,2.45-6.28,3.67-9.43l3.59-9.45-29.76-10.96c7.06-19.29,13.32-38.87,18.74-58.67l91.54,25.01c-12.9,47.12-29.97,93.1-51.11,137.14-.61,1.33-1.27,2.64-1.92,3.95l-3.52,7.08-99.25-49.46h0s-3.65-1.81-3.65-1.81c-3.53,7.32-7.45,14.44-11.2,21.64l-5.94,10.64c-1,1.77-1.96,3.56-2.99,5.31l-3.1,5.24c-8.17,14.04-16.99,27.7-26.15,41.12l3.36,2.3-.06,.08,39.34,26.99,2.88-4.16,2.79-4.22,5.56-8.45-26.62-17.24c11.15-17.26,21.57-34.98,31.24-53.1l83.76,44.59c-25.43,47.78-55.62,93-89.94,134.81l-85.69-70.38-.02,.02-3.15-2.59c-2.56,3.16-5.24,6.22-7.85,9.34l-3.94,4.66-4.05,4.56c-2.71,3.03-5.38,6.11-8.12,9.11l-8.32,8.93c-2.73,3.01-5.64,5.86-8.47,8.79-2.85,2.9-5.65,5.85-8.59,8.66l-8.73,8.53-8.93,8.32,13.61,14.76h.01s21.5,23.3,21.5,23.3l7.4-6.89c2.49-2.27,4.85-4.69,7.28-7.02l-22.11-22.73c14.73-14.33,28.87-29.26,42.34-44.78l71.7,62.16c-31.94,36.8-67.15,70.74-105.07,101.32l-3.6,2.9c-2,1.59-3.96,3.24-6.01,4.77l-68.31-87.36h0s-2.51-3.21-2.51-3.21c-12.81,10-25.99,19.52-39.4,28.69-13.52,9.01-27.24,17.72-41.31,25.86l2.04,3.52-.09,.05,23.91,41.29,8.71-5.15,4.35-2.57c1.45-.86,2.86-1.78,4.3-2.66l-16.62-27c4.34-2.74,8.74-5.39,13.04-8.2l12.87-8.47,12.66-8.78c4.2-2.96,8.31-6.04,12.47-9.05l56.43,76.29c-43.5,32.17-90.2,60.03-139.23,82.99l-47.05-100.42h-.02s-1.73-3.68-1.73-3.68l-5.52,2.58c-1.84,.87-3.68,1.72-5.55,2.52l-11.17,4.89c-3.72,1.64-7.52,3.1-11.27,4.66l-5.64,2.31c-1.88,.77-3.8,1.45-5.69,2.19l-11.4,4.33-11.5,4.05c-3.82,1.39-7.69,2.63-11.56,3.88l-5.8,1.88c-1.93,.63-3.86,1.27-5.82,1.83l5.9,19.19h.02s9.32,30.31,9.32,30.31c1.62-.47,3.23-.97,4.83-1.5l4.81-1.56,9.62-3.12-10.13-30.05c19.45-6.6,38.62-14.01,57.45-22.21l37.93,86.98c-22.39,9.76-45.22,18.52-68.39,26.23-23.17,7.72-46.7,14.41-70.48,19.95-1.42,.34-2.84,.71-4.28,1.01l-7.73,1.69-23.71-108.33h0s-.87-3.98-.87-3.98c-31.72,7.04-63.96,11.59-96.36,14.21l.31,4.06h-.1s3.64,47.58,3.64,47.58c6.71-.61,13.43-1.16,20.14-1.82l-3.26-31.54c20.44-2.1,40.77-5.16,60.95-8.99l17.78,93.21c-53.18,10.15-107.34,14.94-161.35,14.47l.98-110.89h-.03s.04-4.07,.04-4.07l-12.21-.16-12.2-.47c-2.03-.09-4.07-.13-6.1-.25l-6.09-.39c-4.06-.27-8.12-.48-12.18-.8-8.1-.76-16.22-1.33-24.29-2.35-4.04-.49-8.09-.87-12.11-1.44l-12.08-1.69-2.94,19.86h.02s-4.64,31.37-4.64,31.37l10.02,1.4,5.01,.7,5.02,.58,3.79-31.48c5.11,.56,10.2,1.21,15.31,1.7l15.35,1.36c10.25,.7,20.5,1.4,30.78,1.69l-3.34,94.83c-25.1-.88-50.17-2.89-75.11-6.04-24.94-3.19-49.74-7.56-74.29-13.04l-6.01-1.32-5.98-1.45,25.78-107.85h0s.95-3.96,.95-3.96l-11.83-2.89-11.76-3.18c-1.96-.54-3.93-1.03-5.87-1.62l-5.84-1.74c-3.88-1.18-7.8-2.26-11.66-3.52l-11.58-3.76-2.9-.94-2.87-1.01-5.74-2.02c-7.69-2.61-15.24-5.62-22.84-8.47l-1.49,3.79-.1-.04-17.46,44.4c6.31,2.37,12.58,4.85,18.93,7.13l10.8-29.81c19.29,7.06,38.93,13.12,58.76,18.45l-24.55,91.66c-52.31-14-103.21-33.28-151.67-57.39l49.4-99.28h-.02s1.81-3.66,1.81-3.66c-7.32-3.53-14.46-7.44-21.66-11.2l-10.65-5.94c-1.77-1-3.56-1.97-5.32-2.99l-5.25-3.11c-14.07-8.17-27.74-17-41.18-26.16l-11.35,16.56h.02s-17.93,26.17-17.93,26.17l4.16,2.88,4.22,2.78,8.45,5.56,17.22-26.63c17.26,11.14,34.99,21.55,53.13,31.2l-44.54,83.79c-43.11-22.93-84.15-49.71-122.5-79.9l-3.42-2.75-6.15-4.96,69.95-86.04h0s2.57-3.16,2.57-3.16c-12.59-10.27-24.92-20.89-36.74-32.04l-4.46-4.15c-1.48-1.39-2.91-2.83-4.37-4.24l-8.72-8.52c-5.66-5.84-11.42-11.57-16.89-17.58l-2.98,2.78-.07-.07-34.91,32.52c2.31,2.46,4.57,4.96,6.91,7.38l7.06,7.24,22.62-22.23c14.41,14.65,29.43,28.7,45.01,42.09l-61.8,72.01c-41.05-35.22-78.64-74.48-111.95-117.11l87.33-68.34-.02-.02,3.21-2.51c-10.01-12.83-19.55-26.01-28.73-39.44l-6.71-10.19c-1.11-1.7-2.26-3.38-3.33-5.11l-3.23-5.18-3.23-5.17c-1.08-1.72-2.17-3.44-3.18-5.2l-6.21-10.5-17.37,10.06v.02s-27.43,15.9-27.43,15.9l5.15,8.71,2.57,4.35,2.67,4.3,27-16.63c2.74,4.34,5.39,8.75,8.21,13.04l8.48,12.87,8.78,12.66c2.97,4.19,6.04,8.31,9.05,12.47l-76.27,56.46c-29.92-40.39-56.15-83.55-78.11-128.81-.93-1.83-1.81-3.68-2.67-5.54l-2.6-5.57,100.45-46.98h0s3.69-1.73,3.69-1.73l-2.58-5.52-1.29-2.76-1.22-2.79-4.88-11.16c-1.61-3.73-3.09-7.51-4.64-11.26l-2.31-5.64-2.17-5.69-4.32-11.39-4.04-11.49c-1.39-3.81-2.61-7.69-3.86-11.55l-1.88-5.79c-.64-1.93-1.26-3.86-1.82-5.81l-3.89,1.19-.03-.1-45.61,13.99c.92,3.24,2.03,6.43,3.05,9.64l3.12,9.62,30.05-10.11c6.58,19.45,13.98,38.63,22.17,57.47l-87.01,37.87c-21.61-49.64-38.25-101.47-49.55-154.42l108.44-23.16v-.03s3.98-.85,3.98-.85l-1.3-5.96-1.14-5.99c-.75-3.99-1.55-7.98-2.27-11.98-1.29-8.03-2.76-16.03-3.79-24.09-2.38-16.09-3.95-32.29-5.18-48.52l-20.02,1.43v.02s-31.63,2.26-31.63,2.26c.18,3.37,.52,6.72,.81,10.08l.89,10.07,31.56-3.11c2.05,20.44,4.93,40.8,8.66,61l-93.3,17.31c-9.16-49.46-13.72-99.74-13.78-149.93l.15-12.28,110.88,1.64h0s4.07,.06,4.07,.06c0-8.14,.47-16.26,.73-24.38,.2-4.06,.5-8.11,.74-12.17l.38-6.08c.14-2.03,.35-4.05,.52-6.07l1.08-12.14,1.38-12.11,.69-6.05,.85-6.03,1.7-12.07-4.03-.62,.02-.1-47.15-7.26-2.81,20.03,31.46,3.98c-2.55,20.39-4.22,40.88-5.08,61.42l-94.81-3.91c2.22-54.01,9.78-107.88,22.64-160.48l107.72,26.33v-.03s3.96,.97,3.96,.97c1.84-7.92,4.06-15.74,6.16-23.59,1.09-3.91,2.3-7.79,3.45-11.69l1.74-5.84,1.88-5.8,3.78-11.59,4.05-11.5c1.31-3.85,2.79-7.63,4.23-11.43l2.17-5.7,1.08-2.85,1.15-2.82-18.64-7.44v.02s-29.46-11.76-29.46-11.76c-1.31,3.11-2.45,6.28-3.67,9.43l-3.59,9.45,29.76,10.96c-7.06,19.29-13.32,38.87-18.74,58.67l-91.54-25.01c12.9-47.12,29.97-93.1,51.11-137.14,.61-1.33,1.27-2.64,1.92-3.95l3.52-7.08,99.25,49.46h0s3.65,1.81,3.65,1.81c3.53-7.32,7.45-14.44,11.2-21.64l5.94-10.64c1-1.77,1.96-3.56,2.99-5.31l3.1-5.24c8.17-14.04,16.99-27.7,26.15-41.12l-3.36-2.3,.06-.08-39.34-26.99-2.88,4.16-2.79,4.22-5.56,8.45,26.62,17.24c-11.15,17.26-21.57,34.98-31.24,53.1l-83.76-44.59c25.43-47.78,55.62-93,89.94-134.81l85.69,70.38,.02-.02,3.15,2.59c2.56-3.16,5.24-6.22,7.85-9.34l3.94-4.66,4.05-4.56c2.71-3.03,5.38-6.11,8.12-9.11l8.32-8.93c2.73-3.01,5.64-5.86,8.47-8.79,2.85-2.9,5.65-5.85,8.59-8.66l8.73-8.53,8.93-8.32-13.61-14.75h-.01s-21.5-23.3-21.5-23.3l-7.4,6.89c-2.49,2.27-4.85,4.69-7.28,7.02l22.11,22.73c-14.73,14.33-28.87,29.26-42.34,44.78l-71.7-62.16c31.94-36.8,67.15-70.74,105.07-101.32l3.6-2.9c2-1.59,3.96-3.24,6.01-4.77l68.31,87.36h0s2.51,3.21,2.51,3.21c12.81-10,25.99-19.52,39.4-28.69,13.52-9.01,27.24-17.72,41.31-25.86l-2.04-3.52,.09-.05-23.91-41.29-8.71,5.15-4.35,2.57c-1.45,.86-2.86,1.78-4.3,2.66l16.62,27c-4.34,2.74-8.74,5.39-13.04,8.2l-12.87,8.47-12.66,8.78c-4.2,2.96-8.31,6.04-12.48,9.05l-56.43-76.29c43.5-32.17,90.2-60.03,139.23-82.99l47.05,100.42h.02s1.73,3.68,1.73,3.68l5.52-2.58c1.84-.87,3.68-1.72,5.55-2.52l11.17-4.89c3.72-1.64,7.52-3.1,11.27-4.66l5.64-2.31c1.88-.77,3.8-1.45,5.69-2.19l11.4-4.33,11.5-4.05c3.82-1.39,7.69-2.63,11.56-3.88l5.8-1.88c1.93-.63,3.86-1.27,5.82-1.83l-5.9-19.19h-.02s-9.32-30.31-9.32-30.31c-1.62,.47-3.23,.97-4.83,1.5l-4.81,1.56-9.62,3.12,10.13,30.05c-19.45,6.6-38.62,14.01-57.45,22.21l-37.93-86.98c22.39-9.76,45.22-18.52,68.39-26.23,23.17-7.72,46.7-14.41,70.48-19.95,1.42-.34,2.84-.71,4.28-1.01l7.73-1.69,23.71,108.33h0s.87,3.98,.87,3.98c31.72-7.04,63.96-11.59,96.36-14.21l-.31-4.06h.1s-3.64-47.58-3.64-47.58c-6.71,.61-13.43,1.16-20.14,1.82l3.26,31.54c-20.44,2.1-40.77,5.16-60.95,8.99l-17.78-93.21c53.18-10.15,107.34-14.94,161.35-14.47l-.98,110.89h.03s-.04,4.07-.04,4.07l12.21,.16,12.2,.47c2.03,.09,4.07,.13,6.1,.25l6.09,.39c4.06,.27,8.12,.48,12.18,.8,8.1,.76,16.22,1.33,24.29,2.35,4.04,.49,8.09,.87,12.11,1.44l12.08,1.69,2.94-19.86h-.02s4.64-31.37,4.64-31.37l-10.02-1.4-5.01-.7-5.02-.58-3.79,31.48c-5.11-.56-10.2-1.21-15.31-1.7l-15.35-1.36c-10.25-.7-20.5-1.4-30.78-1.69l3.34-94.83c25.1,.88,50.17,2.89,75.11,6.04,24.94,3.19,49.74,7.56,74.29,13.04l6.01,1.32,5.98,1.45-25.78,107.85h0s-.95,3.96-.95,3.96l11.83,2.89,11.76,3.18c1.96,.54,3.93,1.03,5.87,1.62l5.84,1.74c3.88,1.18,7.8,2.26,11.66,3.52l11.58,3.76,2.9,.94,2.87,1.01,5.74,2.02c7.69,2.61,15.24,5.62,22.84,8.47l1.49-3.79,.1,.04,17.46-44.4c-6.31-2.37-12.58-4.85-18.93-7.13l-10.8,29.81c-19.29-7.06-38.93-13.12-58.77-18.45l24.55-91.66c52.31,14,103.21,33.28,151.67,57.39l-49.4,99.28h.02s-1.81,3.66-1.81,3.66c7.32,3.53,14.46,7.44,21.66,11.2l10.65,5.94c1.77,1,3.56,1.97,5.32,2.99l5.25,3.11c14.07,8.17,27.74,17,41.18,26.16l11.35-16.56h-.02s17.93-26.17,17.93-26.17l-4.16-2.88-4.22-2.78-8.45-5.56-17.22,26.63c-17.26-11.14-34.99-21.55-53.13-31.2l44.54-83.79c43.11,22.93,84.15,49.71,122.5,79.9l3.42,2.75,6.15,4.96-69.95,86.04h0s-2.57,3.16-2.57,3.16c12.59,10.27,24.92,20.89,36.74,32.04l4.46,4.15c1.48,1.39,2.91,2.83,4.37,4.24l8.72,8.52c5.66,5.84,11.42,11.57,16.89,17.58l2.98-2.78,.07,.07,34.91-32.52c-2.31-2.46-4.57-4.96-6.91-7.38l-7.06-7.24-22.62,22.23c-14.41-14.65-29.43-28.7-45.01-42.09l61.8-72.01c41.05,35.22,78.64,74.48,111.95,117.11l-87.33,68.34,.02,.02-3.21,2.51c10.01,12.83,19.55,26.01,28.73,39.44l6.71,10.19c1.11,1.7,2.26,3.38,3.33,5.11l3.23,5.18,3.23,5.17c1.08,1.72,2.17,3.44,3.18,5.2l6.21,10.5,17.37-10.06v-.02s27.43-15.9,27.43-15.9l-5.15-8.71-2.57-4.35-2.67-4.3-27,16.63c-2.74-4.34-5.39-8.75-8.21-13.04l-8.48-12.87-8.78-12.66c-2.97-4.19-6.04-8.31-9.05-12.47l76.27-56.46c29.92,40.39,56.15,83.55,78.11,128.81,.93,1.83,1.81,3.68,2.67,5.54l2.6,5.57-100.45,46.98h0s-3.69,1.73-3.69,1.73l2.58,5.52,1.29,2.76,1.22,2.79,4.88,11.16c1.61,3.73,3.09,7.51,4.64,11.26l2.31,5.64,2.17,5.69,4.32,11.39,4.04,11.49c1.39,3.81,2.61,7.69,3.86,11.55l1.88,5.79c.64,1.93,1.26,3.86,1.82,5.81l3.89-1.19,.03,.1,45.61-13.99c-.92-3.24-2.03-6.43-3.05-9.64l-3.12-9.62-30.05,10.11c-6.58-19.45-13.98-38.63-22.17-57.47l87.01-37.87c21.61,49.64,38.25,101.47,49.55,154.42l-108.44,23.16v.03s-3.98,.85-3.98,.85l1.3,5.96,1.14,5.99c.75,3.99,1.55,7.98,2.27,11.98,1.29,8.03,2.76,16.03,3.79,24.09,2.38,16.09,3.95,32.29,5.18,48.52l20.02-1.43v-.02s31.63-2.26,31.63-2.26c-.18-3.37-.52-6.72-.81-10.08l-.89-10.07-31.56,3.11c-2.05-20.44-4.93-40.8-8.66-61l93.3-17.31c9.16,49.46,13.72,99.74,13.78,149.93h10.04c-.05-62.19-7.01-124.51-20.87-185.31-6.94-30.4-15.7-60.37-26.05-89.78-1.31-3.67-2.56-7.37-3.93-11.01l-4.15-10.93-2.08-5.46c-.7-1.82-1.46-3.61-2.19-5.42l-4.42-10.82c-1.44-3.62-3.06-7.17-4.6-10.75l-4.69-10.71-4.93-10.6-2.48-5.29-1.24-2.65-1.3-2.62Z"/><path class="cls-1" d="M1802.01,988.23v-.06s4.07-.06,4.07-.06c-.02-9.26-.52-18.52-.84-27.77-.22-4.63-.56-9.25-.84-13.87l-.44-6.94c-.16-2.31-.39-4.62-.59-6.93l-1.23-13.85-1.57-13.82-.8-6.91-.96-6.89c-.65-4.59-1.26-9.19-1.96-13.77l-4.03,.62v-.08s-47.16,7.28-47.16,7.28c.98,6.6,1.87,13.22,2.8,19.82l31.46-4c2.77,22.11,4.6,44.34,5.52,66.59l-98.58,4.04c-1.85-45.28-8.19-90.31-18.98-134.23l111.35-27.34-.02-.09,3.96-.97c-2.11-9.05-4.67-17.97-7.07-26.94l-3.95-13.36c-.67-2.22-1.31-4.45-2-6.67l-2.15-6.63c-5.59-17.71-12.04-35.14-18.89-52.4l-18.63,7.47,.02,.06-29.43,11.8c.62,1.55,1.28,3.08,1.88,4.64l1.78,4.68,3.56,9.36,29.74-11c7.71,20.92,14.53,42.16,20.44,63.65l-95.15,26.1c-11-40.07-25.7-79.11-43.86-116.5l-4.49-9.03,102.36-51.67-.03-.05,3.64-1.84c-8.42-16.52-17.22-32.86-26.8-48.74l-3.54-5.98-3.68-5.9c-2.47-3.92-4.88-7.89-7.4-11.77l-7.64-11.62-1.91-2.9-1.98-2.86-3.96-5.71-3.35,2.32-.05-.07-39.18,27.22,5.7,8.23,5.5,8.36,26.52-17.39c12.22,18.64,23.64,37.79,34.24,57.4l-86.85,46.82c-21.45-39.85-46.94-77.54-75.93-112.34l88.14-73.33-.06-.07,3.13-2.61-8.99-10.63c-3.01-3.53-6.14-6.96-9.2-10.44l-4.62-5.2-4.73-5.1c-3.17-3.39-6.3-6.81-9.51-10.16-12.85-13.39-26.17-26.32-39.84-38.86l-13.51,14.85,.05,.04-21.34,23.46c4.87,4.57,9.81,9.05,14.61,13.68l21.96-22.88c16.11,15.39,31.48,31.55,46.18,48.29l-74.13,65.1c-13.32-15.18-27.31-29.77-41.91-43.73-14.63-13.92-29.87-27.2-45.67-39.78l-2.84-2.29c-1.67-1.35-3.4-2.62-5.09-3.93l70.14-90.71-.05-.04,2.49-3.22c-29.31-22.71-60.26-43.29-92.43-61.73l-2.02,3.54-.07-.04-23.66,41.43c5.8,3.3,11.5,6.77,17.26,10.14l16.46-27.11c19.03,11.59,37.57,23.99,55.56,37.15l-58.24,79.63c-36.55-26.73-75.75-49.8-116.84-68.72l47.95-104.15-.08-.04,1.7-3.7c-16.88-7.72-33.98-15.01-51.39-21.49l-6.51-2.47c-2.17-.82-4.37-1.56-6.56-2.34l-13.14-4.62c-8.84-2.84-17.63-5.85-26.56-8.4l-5.76,19.23,.06,.02-9.1,30.38c3.19,.97,6.41,1.85,9.58,2.9l9.52,3.09,9.91-30.12c21.17,6.98,42.04,14.86,62.54,23.61l-38.83,90.7c-38.21-16.34-77.92-29.13-118.47-38.2l-9.85-2.15,23.3-112.27h-.06s.83-4,.83-4c-4.53-.97-9.1-1.78-13.65-2.67l-6.83-1.31c-2.28-.44-4.57-.78-6.86-1.17l-13.72-2.27-13.77-1.94-6.89-.95-6.91-.79c-4.61-.52-9.21-1.08-13.82-1.55-9.23-.79-18.46-1.76-27.71-2.24l-.27,4.07h-.08s-3.1,47.6-3.1,47.6c3.33,.23,6.66,.38,9.99,.68l9.97,.89,2.9-31.58c22.19,2.05,44.29,5.02,66.24,8.92l-17.43,97.11c-44.53-8-89.91-11.5-135.27-10.54l-2.37-114.64h-.09s-.08-4.07-.08-4.07c-18.54,.46-37.08,1.33-55.55,3.09-9.25,.72-18.46,1.9-27.68,2.93-4.61,.57-9.2,1.26-13.79,1.89l-6.89,.97c-2.29,.34-4.58,.75-6.87,1.12l3.19,19.82h.06s5.03,31.3,5.03,31.3l4.94-.82c1.65-.27,3.3-.47,4.95-.71l9.91-1.39-4.19-31.43c22.09-2.92,44.3-4.92,66.55-6l4.65,98.55c-40.36,1.97-80.51,7.36-119.83,16.37-1.19,.24-2.37,.56-3.55,.84l-6.25,1.53-27.27-111.37h-.06s-.97-3.94-.97-3.94c-9.03,2.11-17.96,4.65-26.92,7.05-4.46,1.27-8.9,2.63-13.34,3.94l-6.67,1.99-6.62,2.15c-17.7,5.57-35.11,12.02-52.36,18.83l1.51,3.78-.08,.03,17.73,44.29c3.08-1.29,6.2-2.46,9.32-3.65l9.36-3.56-10.99-29.75c20.92-7.7,42.17-14.5,63.67-20.39l26.05,95.16c-43.62,11.93-86.03,28.28-126.41,48.7l-51.76-102.31-.08,.04-1.84-3.63c-4.18,2.02-8.24,4.27-12.36,6.41-4.1,2.18-8.23,4.29-12.26,6.6l-12.15,6.8-12,7.07c-1.99,1.19-4,2.35-5.98,3.56l-5.91,3.68c-3.92,2.48-7.9,4.87-11.78,7.42l-11.63,7.65c-1.95,1.26-3.85,2.59-5.76,3.91l-5.72,3.96,11.47,16.47,.05-.04,18.11,26.03,8.23-5.7,8.36-5.51-17.41-26.5c18.62-12.23,37.77-23.68,57.37-34.29l46.89,86.81c-35.43,19.18-69.18,41.51-100.72,66.63l-2.99,2.41-4.87,3.91-72.79-88.6-.05,.04-2.59-3.15c-3.59,2.93-7.09,5.96-10.64,8.94l-5.31,4.49-5.2,4.61c-3.46,3.09-6.96,6.12-10.37,9.26l-10.18,9.47-2.54,2.37-2.49,2.43-4.97,4.86c-3.31,3.24-6.65,6.45-9.86,9.8l-9.71,9.95-9.48,10.17,3,2.76-.06,.06,35.09,32.32c4.55-4.88,9.05-9.81,13.76-14.54l-22.74-22.1c15.52-15.98,31.71-31.32,48.53-45.93l64.64,74.54c-34.2,29.69-65.45,62.79-93.13,98.63l-90.75-70.09-.05,.07-3.22-2.49c-22.72,29.35-43.3,60.35-61.74,92.58l17.44,9.94,.03-.06,27.55,15.71c1.59-2.93,3.36-5.76,5.04-8.65l5.09-8.62-27.11-16.44c11.58-19.04,23.97-37.59,37.11-55.58l79.67,58.2c-11.91,16.3-23.1,33.13-33.52,50.41-10.43,17.28-20.08,35.03-28.87,53.18-.54,1.09-1.1,2.17-1.6,3.28l-2.72,5.83-103.85-48.6-.02,.05-3.69-1.73-2.94,6.3-1.47,3.15-1.4,3.19-5.58,12.75c-1.84,4.26-3.54,8.57-5.31,12.86l-2.63,6.44-2.49,6.5-4.92,13.01-4.62,13.12c-1.58,4.36-2.97,8.79-4.41,13.2l-2.15,6.62-1.07,3.31-1,3.33,3.89,1.19-.02,.08,45.62,13.97c.92-3.21,2-6.37,3.01-9.54l3.09-9.52-30.06-10.1c7.13-21.12,15.16-41.94,24.05-62.37l90.46,39.39c-18.07,41.47-31.94,84.75-41.34,129l-112.16-23.84-.02,.09-3.98-.85c-.48,2.27-1.01,4.53-1.45,6.81l-1.31,6.84c-.85,4.56-1.79,9.11-2.57,13.69-1.51,9.16-3.12,18.3-4.31,27.51l-.96,6.89-.48,3.45-.4,3.46-1.58,13.83c-.29,2.3-.48,4.61-.68,6.93l-.62,6.93c-.4,4.62-.86,9.24-1.1,13.87l20.02,1.4v-.07s31.64,2.21,31.64,2.21l.33-4.99,.44-4.99,.89-9.97-31.56-3.06c2.18-22.17,5.27-44.26,9.29-66.18l97.02,17.9c-7.52,40.88-11.27,82.47-11.34,124.14l.13,10.1-114.65,1.67v.06s-4.07,.06-4.07,.06c.02,9.26,.52,18.52,.84,27.77,.22,4.63,.56,9.25,.84,13.87l.44,6.94c.16,2.31,.39,4.62,.59,6.93l1.23,13.85,1.57,13.82,.8,6.91,.96,6.89c.65,4.59,1.26,9.19,1.96,13.77l4.03-.62v.08s47.16-7.28,47.16-7.28c-.98-6.6-1.87-13.22-2.8-19.82l-31.46,4c-2.77-22.11-4.6-44.34-5.52-66.59l98.58-4.04c1.85,45.28,8.19,90.31,18.98,134.23l-111.35,27.34,.02,.09-3.96,.97c2.11,9.05,4.67,17.97,7.07,26.94l3.95,13.36c.67,2.22,1.31,4.45,2,6.67l2.15,6.63c5.59,17.71,12.04,35.14,18.89,52.4l18.63-7.47-.02-.06,29.43-11.8c-.62-1.55-1.28-3.08-1.88-4.64l-1.78-4.68-3.56-9.36-29.74,11c-7.71-20.92-14.53-42.16-20.44-63.65l95.15-26.1c11,40.07,25.7,79.11,43.86,116.5l4.49,9.03-102.36,51.67,.03,.05-3.64,1.84c8.42,16.52,17.22,32.86,26.8,48.74l3.54,5.98,3.68,5.9c2.47,3.92,4.88,7.89,7.4,11.77l7.64,11.62,1.91,2.9,1.98,2.86,3.96,5.71,3.35-2.32,.05,.07,39.18-27.22-5.7-8.23-5.5-8.36-26.52,17.39c-12.22-18.64-23.64-37.79-34.24-57.4l86.85-46.82c21.45,39.85,46.94,77.54,75.93,112.34l-88.14,73.33,.06,.07-3.13,2.61,8.99,10.63c3.01,3.53,6.14,6.96,9.2,10.44l4.62,5.2,4.73,5.1c3.17,3.39,6.3,6.81,9.51,10.16,12.85,13.39,26.17,26.32,39.84,38.86l13.51-14.85-.05-.04,21.34-23.46c-4.87-4.57-9.81-9.05-14.61-13.68l-21.96,22.88c-16.11-15.39-31.48-31.55-46.18-48.29l74.13-65.1c13.32,15.18,27.31,29.77,41.91,43.73,14.63,13.92,29.87,27.2,45.67,39.78l2.84,2.29c1.67,1.35,3.4,2.62,5.09,3.93l-70.14,90.71,.05,.04-2.49,3.22c29.31,22.71,60.26,43.29,92.43,61.73l2.02-3.54,.07,.04,23.66-41.43c-5.8-3.3-11.5-6.77-17.26-10.14l-16.46,27.11c-19.03-11.59-37.57-23.99-55.55-37.15l58.24-79.63c36.55,26.73,75.75,49.8,116.84,68.72l-47.95,104.15,.08,.04-1.7,3.7c16.88,7.72,33.98,15.01,51.39,21.49l6.51,2.47c2.17,.82,4.37,1.56,6.56,2.34l13.14,4.62c8.84,2.84,17.63,5.85,26.56,8.4l5.76-19.23-.06-.02,9.1-30.38c-3.19-.97-6.41-1.85-9.58-2.9l-9.52-3.09-9.91,30.12c-21.17-6.98-42.04-14.86-62.54-23.61l38.83-90.7c38.21,16.34,77.92,29.13,118.47,38.2l9.85,2.15-23.3,112.27h.06s-.83,4-.83,4c4.53,.97,9.1,1.78,13.65,2.67l6.83,1.31c2.28,.44,4.57,.78,6.86,1.17l13.72,2.27,13.77,1.94,6.89,.95,6.91,.79c4.61,.52,9.21,1.08,13.82,1.55,9.23,.79,18.46,1.76,27.71,2.24l.27-4.06h.08s3.1-47.6,3.1-47.6c-3.33-.23-6.66-.38-9.99-.68l-9.97-.89-2.9,31.58c-22.19-2.05-44.29-5.02-66.24-8.92l17.43-97.11c44.53,8,89.91,11.5,135.27,10.54l2.37,114.64h.09s.08,4.07,.08,4.07c18.54-.46,37.08-1.33,55.55-3.09,9.25-.72,18.46-1.9,27.68-2.93,4.6-.57,9.2-1.26,13.79-1.89l6.89-.97c2.29-.34,4.58-.75,6.87-1.12l-3.19-19.82h-.06s-5.03-31.3-5.03-31.3l-4.94,.82c-1.65,.27-3.3,.47-4.95,.71l-9.91,1.39,4.19,31.43c-22.09,2.92-44.3,4.92-66.55,6l-4.65-98.55c40.36-1.97,80.51-7.36,119.84-16.37,1.19-.24,2.37-.56,3.55-.84l6.25-1.53,27.27,111.37h.06s.97,3.94,.97,3.94c9.03-2.11,17.96-4.65,26.92-7.05,4.46-1.27,8.9-2.63,13.34-3.94l6.67-1.99,6.62-2.15c17.7-5.57,35.11-12.02,52.36-18.83l-1.51-3.78,.08-.03-17.73-44.29c-3.08,1.29-6.2,2.46-9.32,3.65l-9.36,3.56,10.99,29.75c-20.92,7.7-42.17,14.5-63.67,20.39l-26.05-95.16c43.62-11.93,86.03-28.28,126.41-48.7l51.76,102.31,.08-.04,1.84,3.63c4.18-2.02,8.24-4.27,12.36-6.41,4.1-2.18,8.23-4.29,12.26-6.6l12.15-6.8,12-7.07c1.99-1.19,4-2.35,5.98-3.56l5.91-3.68c3.92-2.48,7.9-4.87,11.78-7.43l11.63-7.65c1.95-1.26,3.85-2.59,5.76-3.91l5.72-3.96-11.47-16.47-.05,.04-18.11-26.03-8.23,5.7-8.36,5.51,17.41,26.5c-18.62,12.23-37.77,23.68-57.37,34.29l-46.89-86.81c35.43-19.18,69.18-41.51,100.72-66.63l2.99-2.41,4.87-3.91,72.79,88.6,.05-.04,2.59,3.15c3.59-2.93,7.09-5.96,10.64-8.94l5.31-4.49,5.2-4.61c3.46-3.09,6.96-6.12,10.37-9.26l10.18-9.47,2.54-2.37,2.49-2.43,4.97-4.85c3.31-3.24,6.65-6.45,9.86-9.8l9.71-9.95,9.48-10.17-3-2.76,.06-.06-35.09-32.32c-4.55,4.88-9.05,9.81-13.76,14.54l22.74,22.1c-15.52,15.98-31.71,31.32-48.53,45.93l-64.64-74.54c34.2-29.69,65.45-62.79,93.13-98.63l90.75,70.09,.05-.07,3.22,2.49c22.72-29.35,43.3-60.35,61.74-92.58l-17.44-9.94-.03,.06-27.55-15.71c-1.59,2.93-3.36,5.76-5.04,8.65l-5.09,8.62,27.11,16.44c-11.58,19.04-23.97,37.59-37.11,55.58l-79.67-58.2c11.91-16.3,23.1-33.13,33.52-50.41,10.43-17.28,20.08-35.03,28.87-53.18,.54-1.09,1.1-2.17,1.6-3.28l2.72-5.83,103.85,48.6,.02-.05,3.69,1.73,2.94-6.3,1.47-3.15,1.4-3.19,5.58-12.75c1.84-4.26,3.54-8.57,5.31-12.86l2.63-6.44,2.49-6.5,4.92-13.01,4.62-13.12c1.58-4.36,2.97-8.79,4.41-13.2l2.15-6.62,1.07-3.31,1-3.33-3.89-1.19,.02-.08-45.62-13.97c-.92,3.21-1.99,6.37-3.01,9.54l-3.09,9.52,30.06,10.1c-7.13,21.12-15.16,41.94-24.05,62.37l-90.46-39.39c18.07-41.47,31.94-84.75,41.34-129l112.16,23.84,.02-.09,3.98,.85c.48-2.27,1.01-4.53,1.45-6.81l1.31-6.84c.85-4.56,1.79-9.11,2.57-13.69,1.51-9.16,3.12-18.3,4.31-27.51l.96-6.89,.48-3.45,.4-3.46,1.58-13.83c.29-2.3,.48-4.61,.68-6.93l.62-6.93c.4-4.62,.86-9.24,1.1-13.87l-20.02-1.4v.07s-31.64-2.21-31.64-2.21l-.33,4.99-.44,4.99-.89,9.97,31.56,3.06c-2.18,22.17-5.27,44.26-9.29,66.18l-97.02-17.9c7.52-40.88,11.27-82.47,11.34-124.14h-10.04c-.04,49.95-5.57,99.75-16.51,148.32-5.43,24.29-12.35,48.24-20.54,71.74-8.19,23.5-17.68,46.55-28.42,69.02-.49,1.09-1.04,2.16-1.57,3.23-43,88.43-105.81,167.35-182.55,229.04l-2.95,2.38-3.59,2.9-3.66,2.8-7.32,5.62c-1.21,.95-2.44,1.87-3.69,2.76l-3.73,2.72-7.45,5.44-7.59,5.25c-2.54,1.73-5.02,3.56-7.61,5.21l-7.71,5.07-3.85,2.54-3.91,2.44c-20.81,13.11-42.32,25.1-64.42,35.87-44.21,21.53-90.82,38-138.65,49.31-1.16,.28-2.32,.59-3.5,.83-48.54,11.06-98.33,16.71-148.27,16.88-49.95,.19-99.77-5.29-148.37-16.08-48.62-10.73-95.91-27.23-140.9-48.56-22.51-10.64-44.35-22.7-65.51-35.84-21.14-13.17-41.61-27.46-61.18-42.89l-2.8-2.26c-19.48-15.55-38.11-32.16-55.8-49.74-17.65-17.61-34.28-36.23-49.89-55.66-31.27-38.83-57.96-81.28-79.81-126.02l-1.05-2.11-1-2.14-2-4.28-4-8.56-3.78-8.66c-1.25-2.89-2.57-5.75-3.72-8.68l-3.57-8.75c-.59-1.46-1.21-2.91-1.77-4.38l-1.67-4.42-3.36-8.83c-1.12-2.94-2.1-5.93-3.17-8.9-8.36-23.76-15.45-47.97-21.05-72.53-11.18-49.13-16.84-99.53-16.89-150.08,.04-49.95,5.57-99.75,16.51-148.32,5.43-24.29,12.35-48.24,20.54-71.74,8.19-23.5,17.68-46.55,28.42-69.02,.49-1.09,1.04-2.16,1.57-3.23,43-88.43,105.81-167.35,182.55-229.04l2.95-2.38,3.59-2.9,3.66-2.8,7.32-5.62c1.21-.95,2.44-1.87,3.69-2.76l3.73-2.72,7.45-5.44,7.59-5.25c2.54-1.73,5.02-3.56,7.61-5.21l7.71-5.07,3.85-2.54,3.91-2.44c20.81-13.11,42.32-25.1,64.42-35.87,44.21-21.53,90.82-38,138.65-49.31,1.16-.28,2.32-.59,3.5-.83,48.54-11.06,98.33-16.71,148.27-16.88,49.95-.19,99.77,5.29,148.37,16.08,48.62,10.73,95.91,27.23,140.9,48.56,22.51,10.64,44.35,22.7,65.51,35.84,21.14,13.17,41.61,27.46,61.18,42.89l2.8,2.26c19.48,15.55,38.11,32.16,55.8,49.74,17.65,17.61,34.28,36.23,49.89,55.66,31.27,38.83,57.96,81.28,79.81,126.02l1.05,2.11,1,2.14,2,4.28,4,8.56,3.78,8.66c1.25,2.89,2.57,5.75,3.72,8.68l3.57,8.75c.59,1.46,1.21,2.91,1.77,4.38l1.67,4.42,3.36,8.83c1.12,2.94,2.1,5.93,3.17,8.9,8.36,23.76,15.45,47.97,21.05,72.53,11.18,49.13,16.83,99.53,16.89,150.08h10.04l-.13-10.1,114.65-1.67Z"/></g></g><g id="everything"><path class="cls-1" d="M838.5,803.62s44.14,31.33,104.3-20.29c-14.95-8.54-60.87-25.63-87.22,13.17"/><path class="cls-6" d="M835.65,795.08s47.22-21.68,53.27-21.68"/><path class="cls-6" d="M859.38,768.75s14.69-6.47,16.1-5.07,21.22-2.87,23.3-4.95,15.76-2.48,17,0"/><path class="cls-6" d="M950.95,754.87s-24.75-17.3-40.85-15.86c-16.1,1.44-32.44,4.57-40.37,4.57s-29.29,1.38-31.24,3.32"/><path class="cls-6" d="M848.11,738.93s29.07-11.12,66.55,.13"/><path class="cls-6" d="M935.36,804.11s-23.78,20.68-46.44,23.69"/><path class="cls-6" d="M821.23,813.04s5.69,9.62,16.22,9.62,14.15,3.62,14.15,3.62"/><path class="cls-1" d="M1177.18,802.84s-44.14,31.33-104.3-20.29c14.95-8.54,60.87-25.63,87.22,13.17"/><path class="cls-6" d="M1180.02,794.3s-47.22-21.68-53.27-21.68"/><path class="cls-6" d="M1156.3,767.97s-14.69-6.47-16.1-5.07-21.22-2.87-23.3-4.95c-2.08-2.08-15.76-2.48-17,0"/><path class="cls-6" d="M1064.72,754.09s24.75-17.3,40.85-15.86c16.1,1.44,32.44,4.57,40.37,4.57s29.29,1.38,31.24,3.32"/><path class="cls-6" d="M1167.57,738.15s-29.07-11.12-66.55,.13"/><path class="cls-6" d="M1080.31,803.33s23.78,20.68,46.44,23.69"/><path class="cls-1" d="M1209.3,726.1s-50.78-22.74-68.97-18.19-63.58,8.79-80.67,8.79c-17.09,0-26.42-12.81-8-20.16,18.42-7.35,93.11-12.43,115.9-7.35,22.79,5.08,46.28,6.29,46.28,17.43,0,11.14,16.67,19.48-4.55,19.48Z"/><path class="cls-1" d="M806.37,726.88s50.78-22.74,68.97-18.19,63.58,8.79,80.67,8.79,26.42-12.81,8-20.16c-18.42-7.35-93.11-12.43-115.9-7.35-22.79,5.08-46.28,6.29-46.28,17.43s-16.67,19.48,4.55,19.48Z"/><path class="cls-1" d="M958.57,1012.06l-13.16,7.55s4.55,47.47,58.82,45.2c54.26-2.28,71.9-26.42,71.9-43.88-15.18,0-19.02-5.21-19.02-5.21,0,0-6.97,15.79-41.88,15.79s-54.01-6.94-56.66-19.46Z"/><path class="cls-1" d="M1455.08,1231.4c0-32.25-22.33-81.87-39.7-114.13-17.36-32.26,27.29-84.36,16.79-140.18-10.5-55.82,0-181.78-8.11-189.89-8.1-8.1-50.86-106.6-50.86-162.42s-54.82-90.56-84.95-90.56-25.11-55.24-68.18-63.73c-43.06-8.49-125.55-16.97-143.95,1.42-18.39,18.39-100.18-18.39-133.07-29.71-32.9-11.32-190.63,48.1-190.63,82.05s-123.69,143.69-142.89,162.88c-19.19,19.2-41.02,175.24-19.8,196.46,21.22,21.22-48.1,118.83-15.56,124.49,32.54,5.66,29.09,169.44,15.31,169.44s-52.05,91.86-33.68,91.86,11.48,106.41,29.09,124.01c17.61,17.61,58.18-36.74,58.18-36.74,0,0,30.62-101.05,58.37-101.05,3.51,0,6.98-4.48,10.38-12.36,12.95,50.04,37.67,93.59,72.14,97.53,59.16,6.76,103.5,36.27,103.5,51.09s85.28,55.39,104.14,55.39,83.25-2.86,98.98-18.59c15.72-15.72,95.27-27.55,108.76-54.52,13.49-26.97,75.51-79.3,75.51-112.8,0-14.88,2.65-32.26,5.59-48.14,15.78,38.3,37.07,72.78,58.02,72.78,40.94,0,57.69,57.69,85.6,85.6,27.92,27.91,7.45-48.38,1.25-65.75-6.2-17.36,29.77-42.18,29.77-74.43Zm-291.61-242.22c-5.03-15.91-15.92,5.86-26.8,5.86s-40.68-20.94-60.54-20.94-54.3,1.26-54.3-6.91-19.12,42.35,7.71,40.85c26.84-1.51,38.86,7.8,54.84,17.75,15.98,9.95,38.39,37.52,33.13,60.34-5.27,22.82,16.96,32.77,.58,40.96-16.38,8.19-57.42,1.53-61.89-2.93-4.45-4.45-39.92-25.6-39.92-32.77s-21.88-19.89-24.69-2.93c-2.81,16.97-15.1,25.75-26.8,25.75s-52.66,7.02-57.92-12.29c-5.27-19.3,18.14-38.03,18.14-56.17s48.6-44.14,61.99-44.14,18.79-27.66,12.03-34.42c0,0-17.91,14.42-31.74,8.82-13.83-5.61-55.31-1.61-79.83,9.61-24.52,11.22-32.89,46.47-54.74,46.47s-54.69,12.81-64.3,6.4c-3.46-2.3,24.79-73.99,15.1-66.03,5.25-47.09-28.25-10.96-28.25-18.08,0-20.54,29.53-99.79,29.53-138.25s-12.03-94.99-17.5-100.46,30.63-63.56,48.02-63.56,50.31-50.32,65.51-65.52c15.2-15.19,73.52-31.72,95.75-31.72s47.15,13.13,47.15,13.13c12.72,12.72,116.26,10.89,141.07,10.89s44.66,44.66,73.19,44.66,21.09,94.28,21.09,118.24-26.06,79.01-26.06,92.65,8.68,74.43,18.61,98.47c9.93,24.05-26.24,70.05-44.45,88.26-4.97,4.96-3.64,11.97,.92,20.25-21.59-17.12-41.46-42.19-44.63-52.24Z"/><path class="cls-6" d="M1197.93,813.1s-5.69,9.62-16.22,9.62c-10.52,0-14.15,3.62-14.15,3.62"/><path class="cls-6" d="M901.55,652.93s51.53,9.68,65.74-4.54,113.03,0,113.03,0c0,0,26.32,.72,40.64,.72"/><path class="cls-6" d="M915.77,610.95s107.95,2.27,107.95-5.67,85.14,3.85,85.14,9.52"/><path class="cls-6" d="M912.14,958.85s-33.38,13.52-37.86,36.06"/><path class="cls-6" d="M1103.53,958.85s23.22,18.94,23.22,33.48"/><path class="cls-6" d="M989.26,796.83s-.65,39.78-4.96,43.2-10.35,11.46-11.93,25.14c-1.57,13.68-8.77,36.47-13.94,40.58s-35.73,38.19-17.48,45.65"/><path class="cls-6" d="M1028.16,796.83s.65,39.78,4.96,43.2c4.31,3.42,10.35,11.46,11.93,25.14s8.77,36.47,13.94,40.58c5.17,4.1,35.73,38.19,17.48,45.65"/></g></g></g><g id="Layer_5"><text class="cls-3" transform="translate(562.29 261.23) rotate(-27.28)"><tspan x="0" y="0">N</tspan></text><text class="cls-3" transform="translate(661.8 210.41) rotate(-20.49)"><tspan x="0" y="0">T</tspan></text><text class="cls-3" transform="translate(747.58 179.1) rotate(-15.59)"><tspan x="0" y="0">I</tspan></text><text class="cls-3" transform="translate(800.44 164.53) rotate(-12.43)"><tspan x="0" y="0"> </tspan></text><text class="cls-3" transform="translate(837.87 155.06) rotate(-7.94)"><tspan x="0" y="0">A</tspan></text><text class="cls-3" transform="translate(924.61 141.36) rotate(-.93)"><tspan x="0" y="0">W</tspan></text><text class="cls-3" transform="translate(1074.53 141.41) rotate(7.79)"><tspan x="0" y="0">A</tspan></text><text class="cls-3" transform="translate(1168.46 154.1) rotate(14.14)"><tspan x="0" y="0">R</tspan></text><text class="cls-3" transform="translate(1260.24 176.63) rotate(20.96)"><tspan x="0" y="0">D</tspan></text><text class="cls-3" transform="translate(1361.17 215.94) rotate(27.32)"><tspan x="0" y="0">S</tspan></text><text class="cls-2" transform="translate(829.32 1942.8) rotate(7.88)"><tspan x="0" y="0">2</tspan></text><text class="cls-2" transform="translate(923.8 1955.83) rotate(1.81)"><tspan x="0" y="0">0</tspan></text><text class="cls-2" transform="translate(1033.33 1958.52) rotate(-4.2)"><tspan x="0" y="0">2</tspan></text><text class="cls-4" transform="translate(1127.14 1950.99) rotate(-9.33)"><tspan x="0" y="0">3</tspan></text></g></svg>