<?xml version="1.0" encoding="UTF-8"?><svg id="Layer_5" xmlns="http://www.w3.org/2000/svg" viewBox="0 0 800 800"><defs><style>.cls-1{fill:#fff;}.cls-2{fill:#cb3011;}</style></defs><path class="cls-2" d="M582.17,434.92c0,64.05-68.59,115.14-136.31,133.21-15.63,4.17-12.84,9.52-30.06,9.52-83.4,0-182.12-56.64-189.44-118.7-2.79-23.59,5.5-44.53,1.72-70.77-2.15-14.97-1.77-26.16-1.53-30.54,.64-12.37,2.7-22.59,4.59-29.84,3.12-11.77,6.96-21.13,10.16-27.91,0,0,4.27-9.76,15.37-24.83,.66-.89-9.23,14.49-8.27,32.31,.56,10.08,4.53,18.33,8.29,24.2,2.41,2.21,8.11,6.88,16.76,8.47,.95,.18,11.75,1.97,21.71-3.36,1.43-.76,2.84-1.67,4.19-2.76,1.69-1.35,3.14-2.82,4.35-4.43,6.12-7.95,7.02-18.85,8.21-31.45,1.39-14.55-.72-26.46-2.51-33.72-2.52-5.94-5.01-13.86-5.75-23.34-2.03-26.32,10.97-46.11,15.94-52.92,8.59-9.64,17.79-21.13,26.82-34.59,11.01-16.4,19.27-32.03,25.49-45.73,.52-1.87,.99-3.92,1.37-6.12,.8-4.65,1.01-8.89,.91-12.49,1.93,4.77,4.31,12.13,4.79,21.29,.62,11.67-2.13,20.52-3.54,25.05-17.42,56.15-17.75,61.35-17.3,66.9,1.11,13.22,6.76,33.84,21.27,38.93,8.33,2.92,16.36-.38,19.68-1.75,23.18-9.5,31.37-40.4,31.49-59.37,.04-7.87-1.29-15.61-1.79-18.53-1.97-11.41-5.25-20.99-8.47-28.43,4.47,2.8,10.14,7.1,15.59,13.38,7.08,8.15,10.46,15.87,11.47,18.31,.54,1.27,2.72,6.64,4.12,14.14,.93,4.95,1.11,8.69,1.27,12.27,.7,15.67-1.43,33.14-1.47,34.16-.04,.66-.04,.7-.06,1.03-.12,2.09-.42,6.2-1.63,20.94-2.21,26.88-3.3,33.32-.3,42.55,.46,1.41,.97,2.76,1.51,4.06,.22,.52,.44,1.01,.68,1.49,2.23,4.67,4.93,8.43,7.34,11.29,.95,.97,3.64,3.56,7.79,5.31,1.91,.8,4.12,1.43,6.62,1.65,7.14,.62,13.6-2.29,17.65-6.22,.28-.28,.54-.54,.8-.82,6.12-6.68,7.12-14.69,5.21-26.7-6.7-42.47,20.12-60.36,20.12-60.36,0,0-4.47,43.98,4.47,63.34,1.77,5.17,3.88,10.64,6.44,16.3,4.87,10.84,10.26,20.12,15.47,27.87,3.1,4.63,10.7,17.85,16.48,29.8,3.3,6.84,7.69,15.91,11.31,26.98,7.08,15.83,10.93,33,10.93,50.96Z"/><path class="cls-1" d="M303.71,329.46c-1.21,1.61-2.66,3.08-4.35,4.43-1.35,1.09-2.76,2.01-4.19,2.76,2.74-2.49,5.59-4.89,8.55-7.2Z"/><path class="cls-1" d="M399.03,616.93h-24.47c-12.38,0-22.41-10.03-22.41-22.41v-189c0-4.49,1.08-8.92,3.14-12.91l23.85-46.05c1.2-2.31,1.84-4.87,1.87-7.48l.18-14.8c.04-3.04,2.51-5.48,5.55-5.48h12.28v298.13Z"/><path class="cls-1" d="M399.03,616.93h24.47c12.38,0,22.41-10.03,22.41-22.41v-189c0-4.49-1.08-8.92-3.14-12.91l-23.85-46.05c-1.2-2.31-1.84-4.87-1.87-7.48l-.18-14.8c-.04-3.04-2.51-5.48-5.55-5.48h-12.28s0,298.13,0,298.13Z"/><path class="cls-2" d="M391.31,479.03v-25.84h-17.54v-11.99h49.83v11.99h-17.54v25.84h-14.75Z"/><g><path class="cls-2" d="M329.74,578.23c11.83-.13,21.87,9.82,21.7,21.7,0,4.31-1.15,8.24-3.46,11.75-2.26,3.46-5.3,6.11-9.06,7.86l12.52,16.1h-23.83l-10.81-14.01h-19.99v14.01h-22.38v-57.41h55.32Zm-32.93,16.79v9.78h27.29c1.37,0,2.52-.47,3.46-1.41s1.45-2.14,1.45-3.46c0-2.73-2.18-4.91-4.91-4.91h-27.29Z"/><path class="cls-2" d="M497,578.27c15.76-.21,27.47,13.03,27.34,28.7,.13,15.59-11.58,28.92-27.34,28.7h-51.09v-57.41h51.09Zm-4.19,18.2h-24.52v21.02h24.52c5.81,0,9.1-4.74,9.1-10.51s-3.29-10.51-9.1-10.51Z"/><g><path class="cls-2" d="M438.22,604.63v4.19c.09,21.7-17.6,27.98-39.17,28.02-21.61-.04-39.3-6.32-39.21-28.02v-4.19c-.09-21.74,17.6-27.98,39.21-28.02,21.61,0,39.17,6.32,39.17,28.02Zm-22.38,1.37c.13-9.35-7.65-11.06-16.79-11.19-9.18,.13-16.96,1.84-16.83,11.19v1.41c-.13,9.4,7.65,11.11,16.83,11.23,9.14-.13,16.91-1.84,16.79-11.23v-1.41Z"/><rect class="cls-2" x="375.62" y="562.97" width="45.19" height="9.44" rx="1.89" ry="1.89"/></g></g></svg>